HIERARCHY
ROOT Hips
{
	OFFSET 0.00000 0.00000 0.00000
	CHANNELS 6 Xposition Yposition Zposition Yrotation Zrotation Xrotation 
	JOINT Lumbar
	{
		OFFSET 0 0 0
		CHANNELS 3 Zrotation Xrotation Yrotation
		JOINT Neck
		{
			OFFSET 0.00 0.2701 0.00
			CHANNELS 3 Zrotation Xrotation Yrotation
			End Site
			{
				OFFSET 0.00 0.1379 0.00
			}
		}
		JOINT RightShoulder
		{
			OFFSET 0.0119 0.2289 0.1181
			CHANNELS 3 Zrotation Xrotation Yrotation
			JOINT RightElbow
			{
				OFFSET 0.00 -0.1475 0.00
				CHANNELS 2 Zrotation Yrotation
				JOINT RightWrist
				{
					OFFSET 0.00 -0.1605 0.00
					CHANNELS 2 Zrotation Xrotation
					End Site
					{
						OFFSET 0.0040 -0.1068 0.0006
					}
				}
			}
		}
		JOINT LeftShoulder
		{
			OFFSET 0.0119 0.2289 -0.1181
			CHANNELS 3 Zrotation Xrotation Yrotation
			JOINT LeftElbow
			{
				OFFSET 0.00 -0.1475 0.00
				CHANNELS 2 Zrotation Yrotation
				JOINT LeftWrist
				{
					OFFSET 0.00 -0.1605 0.00
					CHANNELS 2 Zrotation Xrotation
					End Site
					{
						OFFSET 0.0040 -0.1068 -0.0006
					}
				}
			}
		}
	}
	JOINT RightHip
	{
		OFFSET 0.0316 -0.0424 0.0458
		CHANNELS 3 Zrotation Xrotation Yrotation
		JOINT RightKnee
		{
			OFFSET 0.00 -0.2438 0.00
			CHANNELS 1 Zrotation
			JOINT RightAnkle
			{
				OFFSET 0.00 -0.2449 0.00
				CHANNELS 3 Zrotation Xrotation Yrotation
				End Site
				{
					OFFSET 0.1237 -0.0542 0.0051
				}
			}
		}
	}
	JOINT LeftHip
	{
		OFFSET 0.0316 -0.0424 -0.0458
		CHANNELS 3 Zrotation Xrotation Yrotation
		JOINT LeftKnee
		{
			OFFSET 0.00 -0.2438 0.00
			CHANNELS 1 Zrotation
			JOINT LeftAnkle
			{
				OFFSET 0.00 -0.2449 0.00
				CHANNELS 3 Zrotation Xrotation Yrotation
				End Site
				{
					OFFSET 0.1237 -0.0542 -0.0051
				}
			}
		}
	}
}
MOTION
Frames: 24
Frame Time: 0.02
0.39128 -0.58687 0.06212 -162.90045 45.63949 -17.10278 27.99749 5.85617 -15.31979 -52.3671 9.42594 -2.11994 -62.56691 16.21442 -59.47429 134.30114 54.05378 82.84915 -21.87619 -62.56687 -13.90554 71.10712 134.30117 -52.79067 82.78859 21.54606 78.41101 5.70378 -32.49015 -57.97895 -18.09829 -2.30455 -3.9276 46.93523 -6.9904 -3.4479 -0.40073 -49.80728 -32.11619 10.91149
0.39143 -0.58676 0.06228 -162.77713 45.86644 -17.36396 27.62459 5.55439 -15.3993 -52.26664 9.29497 -2.11994 -62.56691 16.21487 -59.00653 134.30115 53.85132 82.84913 -21.87585 -62.56687 -14.35542 70.32772 134.30117 -53.10964 82.88656 21.98386 77.93044 5.82307 -32.58401 -57.64587 -18.1463 -2.30424 -3.92992 46.65713 -6.87318 -3.25758 -0.39842 -49.79256 -32.06049 10.92356
0.39157 -0.58664 0.06237 -162.6195 46.12277 -17.62485 27.22285 5.21081 -15.52222 -52.17988 9.11782 -2.11994 -62.56691 16.21412 -58.5207 134.30115 53.30678 82.84911 -21.87552 -62.56687 -14.82446 69.11699 134.3012 -52.83012 82.83081 21.75117 77.42197 5.95006 -32.65312 -57.23848 -18.21297 -2.29804 -3.93019 46.34472 -6.76065 -2.97896 -0.39583 -49.76063 -31.93274 10.91259
0.39172 -0.58652 0.06249 -162.48477 46.36286 -17.88006 26.83791 4.88766 -15.62475 -52.08434 8.96205 -2.11994 -62.56691 16.21441 -58.03835 134.30116 52.92663 82.8491 -21.87519 -62.56688 -15.27289 68.1182 134.30119 -52.87235 82.84766 21.84199 76.93177 6.07281 -32.73602 -56.87109 -18.26932 -2.29465 -3.93137 46.05265 -6.6438 -2.744 -0.39339 -49.73607 -31.83547 10.91192
0.39186 -0.58639 0.0626 -162.31933 46.6165 -18.15949 26.43501 4.55788 -15.73092 -52.00024 8.80348 -2.11994 -62.5669 16.21624 -57.57255 134.30116 52.5151 82.84908 -21.87487 -62.56688 -15.77662 67.06158 134.3012 -52.72923 82.85216 21.87514 76.41415 6.19937 -32.80954 -56.47476 -18.33294 -2.29077 -3.93264 45.73925 -6.53542 -2.49349 -0.39083 -49.71279 -31.74465 10.91174
0.392 -0.58628 0.06273 -162.20986 46.84837 -18.38836 26.06393 4.23232 -15.83933 -51.89523 8.64037 -2.11994 -62.5669 16.21001 -57.0683 134.30117 52.08486 82.84906 -21.87449 -62.56688 -16.16811 66.02038 134.3012 -52.82113 82.84598 21.86041 75.94841 6.31959 -32.89632 -56.12192 -18.38609 -2.28653 -3.93326 45.46268 -6.41084 -2.25474 -0.38847 -49.68316 -31.62525 10.90538
0.39217 -0.58624 0.06293 -162.26095 47.01278 -18.47923 25.78382 3.92722 -15.94544 -51.73005 8.47389 -2.11994 -62.5669 16.22024 -56.47452 134.30117 51.6907 82.84904 -21.87403 -62.56689 -16.24066 65.11486 134.3012 -53.69837 82.85039 21.88228 75.63373 6.42019 -33.0243 -55.90931 -18.40514 -2.28222 -3.93229 45.29579 -6.23987 -2.06951 -0.38672 -49.63799 -31.43497 10.88483
0.39234 -0.5862 0.06315 -162.37007 47.15403 -18.51882 25.5379 3.62816 -16.05176 -51.54305 8.30491 -2.11994 -62.5669 16.21465 -55.84109 134.30118 51.28732 82.84899 -21.87327 -62.56689 -16.19956 64.24058 134.3012 -54.82914 82.84904 21.87511 75.3727 6.51411 -33.1665 -55.74306 -18.4132 -2.27784 -3.93079 45.16753 -6.05265 -1.89974 -0.3852 -49.58748 -31.2204 10.85926
0.3925 -0.58614 0.06335 -162.454 47.30591 -18.58116 25.27903 3.32724 -16.1566 -51.36543 8.13867 -2.11994 -62.5669 16.19188 -55.21835 134.30118 50.88543 82.84898 -21.87286 -62.56689 -16.21256 63.35858 134.3012 -55.84921 82.84888 21.87517 75.08691 6.61113 -33.303 -55.55477 -18.42673 -2.27384 -3.92972 45.02189 -5.87332 -1.72282 -0.38358 -49.54096 -31.02375 10.83793
0.39268 -0.58615 0.06359 -162.53124 47.45874 -18.64654 25.00761 3.02092 -16.2691 -51.19077 7.96421 -2.11994 -62.5669 16.27442 -54.62555 134.30118 50.48559 82.84896 -21.87244 -62.56689 -16.21614 62.43423 134.30119 -56.83757 82.8494 21.87774 74.80124 6.7081 -33.43566 -55.36804 -18.43885 -2.26821 -3.92776 44.87382 -5.69197 -1.5417 -0.38193 -49.48735 -30.79604 10.80796
0.39283 -0.58603 0.06375 -162.63725 47.60328 -18.69253 24.77156 2.72808 -16.36477 -51.00432 7.80665 -2.11994 -62.56689 16.1308 -53.96161 134.30118 50.08063 82.84885 -21.87086 -62.5669 -16.21188 61.61127 134.30119 -57.95014 82.84909 21.87646 74.52896 6.80355 -33.57976 -55.18991 -18.45113 -2.26601 -3.92756 44.74103 -5.51095 -1.37622 -0.38039 -49.44732 -30.6275 10.79454
0.39289 -0.58556 0.06368 -162.80351 47.7341 -18.70504 24.61874 2.46935 -16.41637 -50.79278 7.69881 -2.11994 -62.5669 15.3935 -53.10686 134.30119 49.68958 82.84903 -21.8729 -62.5669 -16.21523 61.06153 134.30119 -59.4296 82.84921 21.87736 74.27641 6.89571 -33.75399 -55.02601 -18.46563 -2.27353 -3.93244 44.63633 -5.33463 -1.2318 -0.37915 -49.44761 -30.63519 10.8328
0.39293 -0.58497 0.06353 -162.99783 47.85655 -18.69833 24.50161 2.22456 -16.45022 -50.56967 7.60787 -2.11994 -62.56689 14.42486 -52.18208 134.30119 49.28913 82.84881 -21.8707 -62.5669 -16.21422 60.61514 134.30119 -61.01245 82.84924 21.87766 74.03643 6.98661 -33.93893 -54.86926 -18.4807 -2.28449 -3.93911 44.54675 -5.15927 -1.10566 -0.37801 -49.46163 -30.70255 10.88705
0.39298 -0.58445 0.06343 -163.18271 47.98041 -18.69564 24.37224 1.97458 -16.4905 -50.35033 7.50777 -2.11994 -62.56687 13.54348 -51.29299 134.30118 48.87965 82.84873 -21.86827 -62.5669 -16.21415 60.12241 134.30119 -62.49427 82.84922 21.87781 73.79347 7.07856 -34.1178 -54.70836 -18.49603 -2.29375 -3.94491 44.45345 -4.98352 -0.98466 -0.37682 -49.46843 -30.73817 10.93102
0.39301 -0.58385 0.0633 -163.35553 48.11368 -18.71145 24.22726 1.71967 -16.53821 -50.13639 7.41366 -2.11994 -62.56695 12.73387 -50.38893 134.30125 48.5318 82.84973 -21.88235 -62.56691 -16.21457 59.62605 134.30119 -64.21176 82.84926 21.87824 73.54069 7.16844 -34.30241 -54.5526 -18.50893 -2.30359 -3.9509 44.34806 -4.8068 -0.81067 -0.37567 -49.47894 -30.79158 10.98775
0.39309 -0.58338 0.06321 -163.55947 48.22558 -18.68432 24.12284 1.47865 -16.5656 -49.90892 7.31132 -2.11994 -62.56678 11.72398 -49.49651 134.30109 48.04596 82.84723 -21.85176 -62.56691 -16.21436 59.16371 134.30119 -65.46095 82.84926 21.87849 73.31081 7.26219 -34.47723 -54.38752 -18.52704 -2.31307 -3.95695 44.27109 -4.63279 -0.74706 -0.37446 -49.48532 -30.82346 11.0215
0.39335 -0.5833 0.06326 -163.84163 48.2813 -18.54786 24.12143 1.26924 -16.54651 -49.64554 7.18041 -2.11994 -62.56648 10.18439 -48.68456 134.30077 47.2501 82.84545 -21.78133 -62.56691 -16.21446 58.75116 134.30119 -65.38104 82.84928 21.87878 73.13982 7.36892 -34.62381 -54.19281 -18.56037 -2.32058 -3.96267 44.26773 -4.46428 -1.02005 -0.37303 -49.47483 -30.77245 10.99041
0.39368 -0.58334 0.06335 -164.15399 48.31576 -18.36824 24.15952 1.07397 -16.50662 -49.36936 7.041 -2.11994 -62.56585 8.45797 -47.88219 134.30012 46.30549 82.83845 -21.65288 -62.56691 -16.21446 58.37273 134.30119 -64.82761 82.84929 21.87906 72.99159 7.47919 -34.7598 -53.98885 -18.59874 -2.32766 -3.96839 44.29249 -4.29896 -1.39715 -0.37156 -49.4601 -30.69936 10.93528
0.39397 -0.58332 0.06342 -164.45281 48.35961 -18.20572 24.17951 0.87432 -16.47269 -49.09999 6.90654 -2.11994 -62.56501 6.83835 -47.0538 134.29928 45.38075 82.82685 -21.49414 -62.56691 -16.21444 57.9909 134.30119 -64.49605 82.84931 21.87932 72.8333 7.58661 -34.89968 -53.79004 -18.63428 -2.33504 -3.97415 44.30495 -4.13333 -1.70211 -0.37015 -49.44877 -30.6425 10.88944
0.39427 -0.58331 0.06351 -164.75194 48.4044 -18.05325 24.20128 0.66635 -16.45266 -48.82579 6.76787 -2.11994 -62.56565 5.11626 -46.31 134.29982 44.64668 82.84386 -21.56546 -62.56691 -16.21446 57.56146 134.30119 -64.13782 82.84932 21.87962 72.67357 7.69943 -35.04397 -53.58669 -18.67232 -2.34208 -3.97982 44.31592 -3.96263 -2.11051 -0.36855 -49.43185 -30.56213 10.85075
0.39457 -0.58331 0.06357 -165.05711 48.44215 -17.86968 24.22839 0.47912 -16.39926 -48.55904 6.63602 -2.11994 -62.56317 3.56872 -45.39873 134.29748 43.49347 82.80105 -21.15515 -62.56691 -16.21446 57.23811 134.30119 -63.72414 82.84933 21.87987 72.52296 7.80162 -35.17626 -53.39155 -18.70607 -2.34972 -3.98565 44.33649 -3.80359 -2.33045 -0.36734 -49.42521 -30.52397 10.79165
0.39484 -0.58334 0.06351 -165.37219 48.46693 -17.61222 24.25917 0.3435 -16.25684 -48.3142 6.52251 -2.11994 -62.55167 2.52499 -43.97182 134.2867 41.10207 82.58449 -19.33251 -62.56691 -16.21446 57.19755 134.3012 -63.2491 82.84934 21.87998 72.38493 7.87531 -35.27896 -53.21294 -18.72907 -2.35874 -3.99187 44.37642 -3.67312 -1.98229 -0.36725 -49.44966 -30.61439 10.67863
0.39511 -0.58338 0.06341 -165.69194 48.48516 -17.32478 24.29402 0.2285 -16.08225 -48.07792 6.41656 -2.11994 -62.53698 1.66633 -42.38316 134.27312 38.31326 82.30892 -17.04542 -62.56691 -16.21446 57.26241 134.3012 -62.73934 82.84934 21.88004 72.25687 7.9378 -35.36961 -53.04486 -18.747 -2.36841 -3.99824 44.42501 -3.55486 -1.44467 -0.36755 -49.48432 -30.74682 10.54648
0.39538 -0.58343 0.06333 -166.00913 48.50561 -17.0502 24.32777 0.10555 -15.92344 -47.8387 6.30873 -2.11994 -62.52425 0.7431 -40.90576 134.26121 35.78666 82.06786 -15.03409 -62.56691 -16.21446 57.27967 134.3012 -62.25973 82.84935 21.88013 72.12841 8.00434 -35.46519 -52.8769 -18.76587 -2.37802 -4.00458 44.46974 -3.43282 -1.0086 -0.36765 -49.51308 -30.85499 10.42523
